<svg width="1200" height="720" viewBox="0 0 1200 720" fill="none" xmlns="http://www.w3.org/2000/svg">
  <rect width="1200" height="720" rx="48" fill="url(#bg)"/>
  <circle cx="1020" cy="120" r="140" fill="white" fill-opacity="0.12"/>
  <circle cx="180" cy="610" r="170" fill="white" fill-opacity="0.1"/>
  <rect x="96" y="132" width="1008" height="456" rx="36" fill="white" fill-opacity="0.14" stroke="white" stroke-opacity="0.32"/>
  <rect x="150" y="188" width="410" height="232" rx="24" fill="white" fill-opacity="0.18"/>
  <rect x="610" y="204" width="300" height="22" rx="11" fill="white" fill-opacity="0.76"/>
  <rect x="610" y="248" width="420" height="18" rx="9" fill="white" fill-opacity="0.54"/>
  <rect x="610" y="284" width="360" height="18" rx="9" fill="white" fill-opacity="0.54"/>
  <rect x="610" y="356" width="160" height="84" rx="22" fill="#F4E7D1"/>
  <rect x="790" y="356" width="160" height="84" rx="22" fill="#F4E7D1"/>
  <rect x="150" y="458" width="176" height="44" rx="22" fill="white" fill-opacity="0.18"/>
  <rect x="342" y="458" width="176" height="44" rx="22" fill="white" fill-opacity="0.18"/>
  <rect x="534" y="458" width="176" height="44" rx="22" fill="white" fill-opacity="0.18"/>
  <rect x="610" y="480" width="220" height="54" rx="27" fill="white"/>
  <defs>
    <linearGradient id="bg" x1="72" y1="36" x2="1116" y2="702" gradientUnits="userSpaceOnUse">
      <stop stop-color="#184E77"/>
      <stop offset="0.45" stop-color="#34A0A4"/>
      <stop offset="1" stop-color="#F4E7D1"/>
    </linearGradient>
  </defs>
</svg>
